PathFileType	4	(X/Y/Z)	/Users/niels/Desktop/University/Third Semester/Perception and Action/Exam/Gymnastics Motion Tracking/Code for Gym Tracking/Analyzed Data/Webcam_Backflip/id1_1_trajectory_Sports2D/id1_1_trajectory_Sports2D_px_person00.trc
DataRate	CameraRate	NumFrames	NumMarkers	Units	OrigDataRate	OrigDataStartFrame	OrigNumFrames
29.702970297029704	29.702970297029704	9	22	m	29.702970297029704	37	101
Frame#	Time	Hip			RHip			RKnee			RAnkle			RBigToe			RSmallToe			RHeel			LHip			LKnee			LAnkle			LBigToe			LSmallToe			LHeel			Neck			Head			Nose			RShoulder			RElbow			RWrist			LShoulder			LElbow			LWrist		
		X1	Y1	Z1	X2	Y2	Z2	X3	Y3	Z3	X4	Y4	Z4	X5	Y5	Z5	X6	Y6	Z6	X7	Y7	Z7	X8	Y8	Z8	X9	Y9	Z9	X10	Y10	Z10	X11	Y11	Z11	X12	Y12	Z12	X13	Y13	Z13	X14	Y14	Z14	X15	Y15	Z15	X16	Y16	Z16	X17	Y17	Z17	X18	Y18	Z18	X19	Y19	Z19	X20	Y20	Z20	X21	Y21	Z21	X22	Y22	Z22
37	1.2456666666666665	0.9267028165709635	-0.5229794755608217	0.0	0.8985558715021864	-0.5262393195265593	0.0	0.9129745173471691	-0.6595383660006856	0.0	0.8794916928125954	-0.7860420111002743	0.0	0.9166122508274018	-0.8318351574181582	0.0	0.8975793416777766	-0.8318081564645484	0.0	0.8681710685431919	-0.8026777828011766	0.0	0.9543216172829295	-0.5216448471878443	0.0	0.9777218684455447	-0.6528827351137465	0.0	0.9077200655811292	-0.762914997977189	0.0	0.9343961423470534	-0.8158772414810916	0.0	0.9371234640494696	-0.8064946328579647	0.0	0.8923655665498383	-0.777093694931858	0.0	0.9324165995215096	-0.3131344186854001	0.0	0.9414909702828834	-0.21502669152900777	0.0	0.9539414868984749	-0.26886449306233745	0.0	0.8804804224307456	-0.3412671210964771	0.0	0.8372394828804774	-0.4301614775289514	0.0	0.8450618982699484	-0.5248550301689632	0.0	0.9752278099837276	-0.34602634324947923	0.0	0.9523884796969266	-0.4340244417297292	0.0	0.9574975889445972	-0.5124103138544265	0.0
38	1.2793333333333332	0.939805638141804	-0.5194644608838813	0.0	0.9104370900589444	-0.5230599384994628	0.0	0.9286438992548944	-0.6567051873021448	0.0	0.9141743172422707	-0.7887534040546287	0.0	0.9519239587625733	-0.8314548645061054	0.0	0.9318547789659534	-0.8326631286740772	0.0	0.90475613690712	-0.8066183764991166	0.0	0.9685697185903969	-0.5179388830579364	0.0	0.9966680853239904	-0.648375282437982	0.0	0.9458406554304286	-0.7690257696999823	0.0	0.976615332997171	-0.8182091648168093	0.0	0.9797752103592324	-0.8098150392755035	0.0	0.9317975241804404	-0.7852703931856178	0.0	0.9450768155221151	-0.3082258532984788	0.0	0.951047328877944	-0.21006437737895464	0.0	0.9631328108768193	-0.2635764502705821	0.0	0.8917469395893852	-0.3375952148011238	0.0	0.8514306048035133	-0.4279565053379587	0.0	0.8614959824183156	-0.5224678977555226	0.0	0.9902597764705129	-0.34232721095299146	0.0	0.9737798867800438	-0.4316312047593079	0.0	0.9800342125110061	-0.5116257958019875	0.0
39	1.313	0.9528744262385902	-0.5209341735054542	0.0	0.9226854402160691	-0.5247790700553153	0.0	0.9457277600878712	-0.6585542718906793	0.0	0.9498104758488992	-0.794602328273158	0.0	0.9860153973120693	-0.8336187626987805	0.0	0.9650640339608297	-0.8358636289263494	0.0	0.9427050775076162	-0.8131600873646141	0.0	0.9825974094661136	-0.5193629301577363	0.0	1.0152680551224658	-0.6486675313564463	0.0	0.984467490148873	-0.7776789807700842	0.0	1.0183939068446113	-0.8227756137150364	0.0	1.0220808755647588	-0.8150872056421482	0.0	0.9712775397763986	-0.7952498006791331	0.0	0.9579754029510709	-0.3086453185722955	0.0	0.9612003319952126	-0.2101625618408739	0.0	0.9727872618914679	-0.26408482260022287	0.0	0.9035946675699313	-0.3388843279370007	0.0	0.8664716918080158	-0.4308084594111828	0.0	0.8782499624992968	-0.5250766664979667	0.0	1.005400359891887	-0.343818680201041	0.0	0.9960614290764247	-0.4341508744975872	0.0	1.0053108301251499	-0.5165954630878566	0.0
40	1.3466666666666667	0.966168856546186	-0.5276292588224304	0.0	0.9355304976120792	-0.531814116821789	0.0	0.9646101337963771	-0.665247901571104	0.0	0.9851101143687984	-0.8034920595434197	0.0	1.0183517846208694	-0.8385370794154603	0.0	0.9967031319278223	-0.8415643620563613	0.0	0.9805749207239095	-0.8220725872518304	0.0	0.9966393385503679	-0.526162201025266	0.0	1.0338339851961411	-0.6540760230982954	0.0	1.0221261540946105	-0.7891934015554085	0.0	1.058045604311881	-0.8301350072529495	0.0	1.0624537144335273	-0.8227560872519761	0.0	1.0097415333640698	-0.807339763202831	0.0	0.9708282036987798	-0.31455243346587347	0.0	0.9715679100396551	-0.21535471530802394	0.0	0.9827412651466615	-0.270430623521023	0.0	0.9157380789678518	-0.34552721861540414	0.0	0.8821712032860217	-0.4391078148658674	0.0	0.8954329751954319	-0.53291372580056	0.0	1.0203295551075284	-0.35038537742824577	0.0	1.0183651294155562	-0.4414214295242552	0.0	1.0328902993401716	-0.5266291969016548	0.0
41	1.3803333333333332	0.9800149707627831	-0.5398125584387876	0.0	0.9491773827114012	-0.5445651425221999	0.0	0.9850917718952691	-0.6770720983016795	0.0	1.0184665533049224	-0.8158419282539705	0.0	1.048165741162853	-0.8469657347016493	0.0	1.0259817118426657	-0.8504866074227444	0.0	1.0164287256756084	-0.8336414447853326	0.0	1.0110837374525927	-0.5384932583221137	0.0	1.0525329830146375	-0.6649397510978449	0.0	1.0572874059914752	-0.8042164580801834	0.0	1.0932235977315865	-0.8412098996090245	0.0	1.0987264596906963	-0.833863275553131	0.0	1.0459143325080493	-0.8222035955553725	0.0	0.9832997546440035	-0.3259755882038784	0.0	0.9817048529851057	-0.2258225063920588	0.0	0.9927348552785704	-0.2824512069879536	0.0	0.9277822783243401	-0.3579399273089504	0.0	0.8981774831885126	-0.4532359679907871	0.0	0.9130667848880059	-0.5461105552811134	0.0	1.0346805109976713	-0.3618723803444366	0.0	1.0402448293828495	-0.45334539126776635	0.0	1.062049186199756	-0.5408750634158921	0.0
42	1.414	0.9947506352686593	-0.5575666371289822	0.0	0.9638048674272458	-0.5631447514220635	0.0	1.0064752468897344	-0.694261639636369	0.0	1.0480773543307234	-0.8323300927719128	0.0	1.0741933483031645	-0.8598698077796183	0.0	1.051596876430518	-0.8635620468944104	0.0	1.0480351037519577	-0.8484937200005279	0.0	1.0263842650568995	-0.5562352856534991	0.0	1.0713217334552974	-0.6814628019056889	0.0	1.0885170121464158	-0.8234096253039771	0.0	1.1216961818031113	-0.856688447637858	0.0	1.1288489851015708	-0.8493922365187087	0.0	1.0783761360345556	-0.8406874726899125	0.0	0.9950684064687702	-0.34277042734159263	0.0	0.9913094583693759	-0.2416993529723127	0.0	1.0024435174662387	-0.2998286236933245	0.0	0.939357599919392	-0.3763184780358179	0.0	0.9140503639314966	-0.4732903092740085	0.0	0.9310281534057293	-0.5644435160983647	0.0	1.0481671836327566	-0.37808388361559175	0.0	1.061747896247411	-0.46965820089820665	0.0	1.0921406374575109	-0.5583768614019254	0.0
43	1.4476666666666667	1.0105366265669036	-0.580543836568513	0.0	0.979453187000552	-0.5871187747818343	0.0	1.02771255710218	-0.7167139714877195	0.0	1.0722250972230152	-0.8534212603858565	0.0	1.0948580122821876	-0.8777722324788292	0.0	1.072068047125897	-0.8813556915491214	0.0	1.0733189245443182	-0.8671999260911076	0.0	1.0428099921865752	-0.5788910004163309	0.0	1.0898764892689166	-0.7035154354018658	0.0	1.1145634116296768	-0.8470099493962885	0.0	1.1423759064197232	-0.8767225741575754	0.0	1.1516377400349609	-0.8697620893222261	0.0	1.1057181950245099	-0.8633687693889728	0.0	1.0059670946211818	-0.3644893012636303	0.0	1.0003244093330068	-0.2628659924882181	0.0	1.0115946632050068	-0.3219731510350841	0.0	0.9502742454968077	-0.4003194548169144	0.0	0.9293100404845087	-0.49878084868271627	0.0	0.9489660937300535	-0.5870594115630859	0.0	1.0606926514444757	-0.39863278747307335	0.0	1.083085866403817	-0.489589733749046	0.0	1.1226780766815996	-0.5777471758022894	0.0
44	1.4813333333333332	1.0271916058259158	-0.607738774146121	0.0	0.9959011560673067	-0.6152950550887917	0.0	1.0475339854885386	-0.7437207576037471	0.0	1.0897497230497963	-0.8788196130757052	0.0	1.1087695431001454	-0.9002802683231048	0.0	1.0863509661801714	-0.9035589542605553	0.0	1.0910008722952629	-0.8896858992729882	0.0	1.0601996532320357	-0.6055016672592731	0.0	1.1075555638186332	-0.7304433734223004	0.0	1.1345835972739753	-0.8744161224552359	0.0	1.1558088336491135	-0.9007614139532282	0.0	1.167160133352652	-0.8945044620985784	0.0	1.126827470753703	-0.8900224169030482	0.0	1.016066629002239	-0.39016278352636075	0.0	1.0088481679717232	-0.2886910231127232	0.0	1.0201246799004962	-0.3478001902213893	0.0	0.9605685309779578	-0.4287911700734174	0.0	0.9434699338351246	-0.5284243581273963	0.0	0.966216201105059	-0.6124020627274684	0.0	1.0724038908960252	-0.4227038123494588	0.0	1.1043117130558167	-0.5117803070055811	0.0	1.1531468956883537	-0.5970596588438948	0.0
45	1.515	1.044152514936361	-0.6373552574634714	0.0	1.0126139317183043	-0.6456275714963681	0.0	1.0645831990558385	-0.7737390152690452	0.0	1.1004251900728894	-0.9071673785652953	0.0	1.1153222021591442	-0.9259818096374755	0.0	1.094175387427938	-0.9287801552800609	0.0	1.1010539234652421	-0.9149357635283537	0.0	1.0779218444471825	-0.6345102659797899	0.0	1.1234303172890017	-0.7608431221612488	0.0	1.148475894441468	-0.9040528665154157	0.0	1.1638481665607432	-0.9273828499474297	0.0	1.1766874439395372	-0.9220917777995873	0.0	1.141346348946353	-0.9192824605252854	0.0	1.0256184952861023	-0.4180829321420565	0.0	1.01699798271019	-0.3176706951263079	0.0	1.0282078251738362	-0.37556688769577173	0.0	0.9704162159962166	-0.45966878149220175	0.0	0.9560654603950515	-0.5600760344445879	0.0	0.9817964612605002	-0.6383626282047598	0.0	1.0836441891946889	-0.4488549024384427	0.0	1.1252521137140243	-0.5344637532300022	0.0	1.1827619270283876	-0.614086210875007	0.0
